<?xml version="1.0" encoding="utf-8"?>
<!-- Generator: Adobe Illustrator 27.0.0, SVG Export Plug-In . SVG Version: 6.00 Build 0)  -->
<svg version="1.1" id="Layer_1" xmlns="http://www.w3.org/2000/svg" xmlns:xlink="http://www.w3.org/1999/xlink" x="0px" y="0px"
	 viewBox="0 0 800 800" style="enable-background:new 0 0 800 800;" xml:space="preserve">
<style type="text/css">
	.st0{fill:#FE944A;}
</style>
<path class="st0" d="M618.32,425.01c1.12,121.07,106.21,161.35,107.37,161.87c-0.89,2.84-16.79,57.41-55.36,113.78
	c-33.35,48.74-67.95,97.29-122.47,98.3c-53.57,0.99-70.79-31.76-132.03-31.76c-61.22,0-80.36,30.76-131.07,32.75
	c-52.62,1.99-92.69-52.7-126.31-101.26c-68.7-99.32-121.2-280.66-50.71-403.07c35.02-60.79,97.61-99.28,165.54-100.27
	c51.67-0.99,100.44,34.76,132.03,34.76c31.57,0,90.84-42.99,153.14-36.68c26.08,1.09,99.3,10.54,146.32,79.36
	C700.99,275.15,617.42,323.8,618.32,425.01 M517.65,127.73C545.59,93.92,564.39,46.84,559.26,0
	c-40.27,1.62-88.96,26.83-117.85,60.63c-25.89,29.93-48.56,77.83-42.44,123.75C443.86,187.85,489.71,161.57,517.65,127.73"/>
</svg>
