<?xml version="1.0" encoding="utf-8"?>
<!-- Generator: Adobe Illustrator 27.0.0, SVG Export Plug-In . SVG Version: 6.00 Build 0)  -->
<svg version="1.1" id="Layer_1" xmlns="http://www.w3.org/2000/svg" xmlns:xlink="http://www.w3.org/1999/xlink" x="0px" y="0px"
	 viewBox="0 0 800 800" style="enable-background:new 0 0 800 800;" xml:space="preserve">
<style type="text/css">
	.st0{fill:#FE944A;}
</style>
<path class="st0" d="M790.47,407.48c0-32.78-2.66-56.69-8.42-81.5H407.79v147.93h219.69c-4.43,36.76-28.35,92.13-81.5,129.33
	l-0.75,4.95l118.34,91.67l8.2,0.82C747.06,631.16,790.47,528.84,790.47,407.48"/>
<path class="st0" d="M407.79,797.25c107.63,0,197.98-35.44,263.98-96.56l-125.79-97.44c-33.66,23.47-78.84,39.86-138.19,39.86
	c-105.41,0-194.88-69.54-226.78-165.65l-4.67,0.4L53.29,573.09l-1.61,4.47C117.23,707.78,251.88,797.25,407.79,797.25"/>
<path class="st0" d="M181.01,477.47c-8.42-24.8-13.29-51.38-13.29-78.84c0-27.46,4.87-54.04,12.84-78.84l-0.22-5.28L55.76,217.75
	l-4.08,1.94C24.66,273.72,9.16,334.4,9.16,398.63s15.5,124.9,42.52,178.94L181.01,477.47"/>
<path class="st0" d="M407.79,154.13c74.85,0,125.34,32.33,154.13,59.35l112.5-109.84C605.33,39.42,515.41,0,407.79,0
	C251.88,0,117.23,89.47,51.68,219.69l128.89,100.1C212.9,223.67,302.37,154.13,407.79,154.13"/>
</svg>
