<?xml version="1.0" encoding="utf-8"?>
<!-- Generator: Adobe Illustrator 27.0.0, SVG Export Plug-In . SVG Version: 6.00 Build 0)  -->
<svg version="1.1" xmlns="http://www.w3.org/2000/svg" xmlns:xlink="http://www.w3.org/1999/xlink" x="0px" y="0px"
	 viewBox="0 0 800 800" style="enable-background:new 0 0 800 800;" xml:space="preserve">
<style type="text/css">
	.st0{fill:#FFFFFF;stroke:#FFFFFF;stroke-miterlimit:10;}
	.st1{font-family:'ArialRoundedMTBold';}
	.st2{font-size:160px;}
	.st3{display:none;}
	.st4{display:inline;fill:none;stroke:#000000;stroke-miterlimit:10;}
	.st5{display:inline;fill:#EFEA41;stroke:#000000;stroke-miterlimit:10;}
	.st6{display:inline;fill:none;}
</style>
<g id="Layer_1">
	<g id="Layer_1_00000063615416080951158020000011435298436119031712_">
		<g>
			<path class="st0" d="M568.3,601.5c65.4,4.1,63.3-63.3,63.3-63.3c55.1-21.4-10.2-33.7-10.2-33.7c-54.1-47-90.9-8.2-90.9-8.2H410
				c-18.4-26.6-63.3-20.4-63.3-20.4l-2-11.6l270.6-0.7c70.5,8.2,71.5-57.9,71.5-57.9l32.7-133.1c16.3-57.2-31.7-73.5-31.7-73.5
				c16.3-20.4,0-106.2,0-106.2c-57.2,2-101.1,69.4-101.1,60.3c0-9.2-18.4-43.9-18.4-43.9c-67.4,38.8-53.1,80.7-53.1,80.7l-12.3-4.1
				c3.1-68.4-91.8-121.6-91.8-121.6c-6.1,20.4-20.4,71.5-20.4,71.5C359,76.6,236.4,49,236.4,49c-9.2,88.9,20.4,153.2,20.4,153.2
				h-20.4c0,0-10.2-17.4-19.4-46s-28.6-17.4-28.6-17.4L81.2,156.3c0,0-35.2,1.5-11.2,24.5s29.1,1,29.1,1c15.3,12.3,23-3.6,23-3.6
				c24.5,11.7,35.2-16.9,35.2-16.9l29.6-3.6l25,65.9c0,0-85.3,2-112.3,16.9c-27.1,14.8,3.1,21.4,8.7,14.8
				c5.6-6.6,110.8-15.8,110.8-15.8l14.3,44.9c0,0-173.1,12.3-207.9,35.7s8.2,40.9,20,26.6C57.2,332.4,249.2,312,249.2,312l11.7,31.1
				c-15.3-4.1-114.4,13.8-150.6,21.4c-0.9,0.2-1.8,0.4-2.7,0.6c-32.6,8-14.3,25.7,2.1,16.8c16.9-9.2,157.8-21.4,157.8-21.4l9.7,24.5
				c-27.6-7.1-201,27.6-228.2,33.9c-2.6,0.6-5.1,1.5-7.5,2.8c-18.9,10.1-14,17.7-6.2,22.5c6.6,4.1,14.6,5.3,22.3,3.8l101.2-20.1
				c22.5-7.1,127.7-14.3,127.7-14.3l11.2,32.3l-141.8,19.3c-0.8,0.1-1.5,0.3-2.2,0.6c-22.8,10.2,1.4,16.9,1.4,16.9l150.8-22.2
				l16.3,29.6L312,504.5l-35.7,1l-151.1,20.4c-27.6,11.7-12.3,26.6,3.7,24.2c2.3-0.3,4.6,0.6,7,0.3l100.6-11.2
				c42.9-8.7,72.8-4.3,68.4-4.1c0,53.1,44.9,60.3,44.9,60.3l-6.1,8.2c-76.9,0-161.8,46.1-195.9,66.8
				c160.8-89.1,636.1-13.7,636.1-13.7C756.3,624,568.3,601.5,568.3,601.5z M441.5,295.2v-0.3c-0.1-0.6-0.1-1.3,0-2v-39.4
				c0-2.4,1.5-3.6,3.2-3.9c0.5-0.3,1.1-0.4,1.7-0.4h82.3c0.4,0,0.8,0.1,1.1,0.2c1.8,0.2,3.4,1.4,3.4,3.9v39.3c0,0.8-0.2,1.5-0.5,2
				c-0.3,1.6-1.5,3.1-3.5,3.1c-0.2,0-0.3,0-0.4,0c-0.4,0.2-0.9,0.3-1.5,0.3H448C444.7,298.4,443.4,298.2,441.5,295.2z M532.3,415.4
				c0,2-1.2,3.2-2.7,3.7c-0.6,0.4-1.3,0.6-2.2,0.6h-71.2c-1.5,0-2.6-0.7-3.2-1.6c-0.9-0.6-1.6-1.7-1.6-3.2v-35.5
				c-0.5-2.3,0.8-5,3.8-5h73c2.9,0,4.1,2.4,3.9,4.6c0.1,0.4,0.2,0.8,0.2,1.2V415.4z M530.8,350.6c-0.2,2-1.5,3.2-3,3.7
				c-0.6,0.7-1.6,1.1-2.8,1.1h-74c-1.3,0-2.3-0.5-3-1.3c-1.6-0.4-2.9-1.7-2.9-3.7v-31.2c-0.6-5.7-0.4-6.3,3.3-6.3h80.9
				c1.7,0,2.9,0.9,3.4,2.1c1,0.6,1.7,1.7,1.6,3.3C534,329,531.6,339.7,530.8,350.6z M654.7,384c-0.3,19.8-15.8,40.6-32,40.5
				c-1.1,0-1.8-0.5-2.4-1.2c-1.7-0.3-3.3-1.8-3.1-4.6c0.7-13.3,2.1-26.6,2.8-40c0.2-3.4,2.7-4.7,4.8-4.1l26.9,1.3c3.1,0.1,4,4,3,6.6
				C654.6,383.1,654.7,383.5,654.7,384z M674,321.3c-3.5,10.6-6.8,21.2-11,31.6c-0.5,1.1-1.3,1.9-2.2,2.2c-0.6,1.2-1.7,2.1-3.4,2
				l-26-0.5c-3.2-0.1-4.3-3.4-3.2-5.7l0.7-31.3c0.1-2.3,1.7-3.5,3.4-3.7c0.5-0.3,1.1-0.4,1.8-0.4l36,0.7c0.8,0,1.4,0.2,1.9,0.6
				C673.6,317.5,674.7,319.1,674,321.3z M693.6,263c-2.9,6.9-3.3,14.7-6.2,21.6c-2.8,6.6-4.7,13.6-6.9,20.4c-0.9,2.8-7.5,1.4-9.6,1
				c-0.1,0-0.3,0.1-0.4,0.1c-9,0.3-17.9-1.4-26.8-1.9c-2.2-0.4-3.9,0.1-4.9-1.5c-1-1.3-1-3-0.6-4.6v-35.4c0-1.1,0.4-2,1-2.6
				c0.3-1.7,1.6-3.2,3.8-3.2h45.9C691.5,256.1,695.1,259.4,693.6,263z M648.5,223.2h46.7c0.1,0,0.2,0,0.3,0c2.3-0.6,5.2,0.7,5.2,3.8
				c0.2,6.5-1.2,12.9-3.5,18.9c-0.7,1.9-1.8,3.4-3.4,3.5c-0.6,0.5-1.9,0-2.8,0h-45l0,0c-3.3,0.1-5.8-0.1-5.8-3.5
				c0.1-6.5,1.2-12.9,1.8-19.4C642.2,222.9,645,222.8,648.5,223.2z M615.5,168.5c0.9-5.9,5.2-12.2,8.6-16.9c3-4.1,8.4-11.3,14.3-8.2
				c6.2,3.3,1.3,11-1.3,15.1c-3,4.8-6.5,10.7-10.8,14.4c-1,0.8-2.1,1.2-3.2,1.1c-0.6,0.7-1.6,1.1-2.8,1.1c-0.1,0-0.2,0-0.3,0
				s-0.2,0-0.3,0c-2.5,0-3.8-1.9-3.9-3.8C615.6,170.5,615.3,169.6,615.5,168.5z M551.7,235.9v-12.3c0-0.4,0.1-0.8,0.2-1.2
				c0.2-1.8,1.5-3.5,3.9-3.5h67.4c0.9,0,1.6,0.3,2.2,0.7c1.5,0.4,2.8,1.7,2.8,3.7v16.3c-1.8,2.7-1.8,2.7-7.1,2.7H556
				c-2.8,0-4.6-2.3-4.4-4.5C551.4,237.3,551.7,236.7,551.7,235.9z M550,257.6c0-3.6,2.9-3.8,6.3-3.3h61.3c1.7,0,2.8,0.9,3.4,2
				c0.7,0.6,1.1,1.6,1.1,2.8c0,12-4.8,23.3-5.1,35.2c0,1.2-0.5,2.1-1.2,2.8c0,2-1.3,4.1-3.9,4.1h-56.2c-2.7,0.3-5.8-0.1-5.8-3.5
				v-40.1H550z M547.7,317.4c0-3,2.5-4.3,4.7-3.8h56.4c2.9,0,4.1,2.9,3.5,5.3c0,0.3,0,0.6-0.1,0.9c-1.8,9.9-3.8,19.9-7.3,29.4
				c-0.2,0.5-0.5,1-0.8,1.4c-0.1,0.5-0.2,0.9-0.4,1.3c-0.2,1.8-1.4,3.4-3.6,3.4H552c-1.3,0-2.3-0.6-2.9-1.5
				c-0.8-0.6-1.4-1.7-1.4-3.1L547.7,317.4L547.7,317.4z M545.7,377.1c0-3.4,3-4.6,5.1-3.5h44c1.3,0,2.2,0.6,2.7,1.6
				c1.2,0.8,2,2.4,1.6,4.3c-0.2,0.9-0.4,1.8-0.6,2.7c0.1,0.5,0,1.1-0.1,1.7c-3.4,11.7-4.4,24-8.9,35.4c-1,2.5-3.6,3.1-5.6,2.5
				c-0.5,0.5-1.2,0.8-2.1,0.8h-31.9c-0.4,0-0.7-0.1-1-0.2c-1.6-0.2-3.2-1.4-3.2-3.9V377.1z M464.6,145c7.6,13,19.4,23.7,21,39.3
				c0.2,1.9-1.4,3.3-3,3.9c-16.9,6.7-19.8-29.6-24.5-38.1c-0.1-0.2-0.2-0.4-0.2-0.6c-0.1-0.2-0.2-0.3-0.3-0.5
				C455,144.6,462,140.5,464.6,145z M438.7,222c0-1.9,1-3.1,2.3-3.6c0.5-1.4,1.6-2.5,3.4-2.5h90.5c3.3,0,4.4,3.8,3.1,6.2v10.8
				c0,0.7-0.1,1.2-0.3,1.7c-0.4,1.5-1.6,2.7-3.4,2.7h-90.6c-2.2,0.7-5-0.5-5-3.7L438.7,222L438.7,222z M434.1,377.9
				c0.9,0.6,1.6,1.7,1.6,3.3v39.1c0,1.5-0.6,2.6-1.5,3.2c-0.6,0.9-1.5,1.6-2.9,1.6h-31.9c-1.6,1-3.6,0.8-4.6-1.5
				c-5.8-12.9-10.5-26.5-12.6-40.8c-0.2-1.3,0.1-2.4,0.7-3.3c0.2-1.8,1.4-3.4,3.5-3.4h44.7C432.5,376.1,433.5,376.9,434.1,377.9z
				 M430.2,321.2v30.7c0,0.4-0.1,0.8-0.2,1.1c0.1,2.1-1.2,4.2-3.9,4.2h-43.9c-1.9,0-3.1-1.1-3.6-2.4c-0.7-0.5-1.3-1.1-1.6-2.1
				c-3.5-10.3-4.8-21-6.9-31.7c-0.7-3.6,3-5.7,5.5-4.9h50.7C429.4,316.1,430.7,318.9,430.2,321.2z M423.8,259v37.6
				c0,3.5-3.2,3.7-6.4,3.1c-0.1,0-0.2,0-0.2,0h-48.3c-6.5-0.5-4.9,2.2-6.5-0.5c-3.5-6-4.9-12.7-6.7-19.3c-1.9-7-4.2-13.8-5.1-21
				c-0.1-0.7,0-1.3,0.2-1.8c0.3-1.6,1.6-3.1,3.8-3.1h63.1c1.3,0,2.3,0.5,2.9,1.2C422.3,255.7,423.8,256.9,423.8,259z M344,219
				c0.8-0.1,2.1-0.1,4.1,0l64.5,0.6c5.7,0.4,6.7-0.9,6.7,3.3c0,3.8,0.3,7.5,0.7,11.3c0.1,0.8-0.1,1.6-0.5,2.3c-0.3,2-1.5,3.7-3.8,4
				H353c-0.3,0-0.4-0.1-0.9,0c-4.1,0.4-4.9,1-5.7-1.2c-1.9-4.9-3.9-9.6-5.1-14.8C340,219.5,341.2,219.2,344,219z M252.1,243.5
				c-2.7,0-4-2-3.9-3.9c-0.1-0.3-0.2-0.7-0.2-1v-12.8c0-1.1,0.2-2.4,0.8-3c0,0,0.1,0,0.1-0.1c0,0,0,0,0.1-0.1c0.6-1.1,2-1.5,3.8-1.5
				h66.1c4.8,0,6.7-0.7,6.7,2.8v15c0,0.4-0.1,0.7-0.1,1c0,1.8-1.3,3.7-3.9,3.7h-69.5L252.1,243.5L252.1,243.5z M277.2,301.3
				c-0.6,0-1.2-0.1-1.7-0.3c-0.8-0.2-1.6-0.6-2.2-1.4c-3.3-4.2-4-9.5-5.4-14.5c-1.9-6.9-4.7-13.6-6.1-20.6c-1.2-5.7,4.8-5.7,6.2-5.7
				h61.3c3.1,0,2,0.5,3.4,4.9c0.1,0.2,0.2,0.4,0.2,0.7c2.5,10.1,7.7,19.4,11.1,29.2c0.2,0.7,0.2,1.3,0.1,1.8
				c0.4,1.2,0.2,2.5-0.6,3.5c-0.4,1.3-1.6,2.4-3.5,2.4H277.2z M302.1,359.8c-1.5,0-2.6-0.7-3.2-1.6c-0.2-0.2-0.4-0.4-0.6-0.7
				c-7.3-9.9-10.5-22.1-15.3-33.4c-0.7-1.6-0.3-3.2,0.6-4.4c0.5-1.4,1.7-2.4,3.6-2.4h58.2c0.9,0,1.6,0.3,2.2,0.7
				c1.3,0.3,2.5,1.1,3,2.7c4,11,6.5,21,11.8,33.1c1.7,3.8-1.8,6.8-4.8,5.8c-0.4,0.1-0.9,0.2-1.4,0.2L302.1,359.8L302.1,359.8z
				 M306.8,383.7c-1.4-2.9,0.8-5.6,3.1-6.1c0.5-0.2,1.1-0.4,1.7-0.4h52.1c2.6,0,3.9,2,3.9,4c4,13.1,8.1,26.1,10.9,39.5
				c0.5,2.3-0.8,3.9-2.5,4.7c-0.6,0.7-1.6,1.1-2.8,1.1h-43c-1.7,0.7-3.7,0.4-4.8-1.7C318.5,411.5,313.2,397.3,306.8,383.7z
				 M396.4,563.2c-1.5,2.2-3.2,4.2-5.1,6.1c-0.1,0.1-0.2,0.2-0.2,0.2c-0.3,0.3-0.6,0.6-0.9,0.9c-0.3,0.3-0.7,0.5-1,0.7
				c-8.4,6.7-17.9,9.7-28.8,8.5c-9.6-1.1-20.3-4.6-26.9-12.1c-6.6-6.2-11-15.8-12.1-23.9c0-0.3-0.1-0.6,0-0.9
				c-0.1-1.4-0.1-2.8-0.1-4.2c-0.3-2.9,0.2-5.6,1-8.5c0-0.3,0-0.7,0.1-1.1c0.8-3.7,2.4-7,4.6-10c0.1-0.2,0.2-0.5,0.3-0.7
				c0.3-0.6,0.6-1.2,1-1.6c5.2-11.9,18.9-20.2,31.7-20.3c0.3,0,0.6,0,0.8,0.1c0.2,0,0.3,0.1,0.5,0.1c10.8-0.9,22.3,2.3,29.6,9.8
				c0.2,0.1,0.4,0.2,0.5,0.4c0.9,0.7,1.6,1.5,2.4,2.4c0.1,0.1,0.1,0.1,0.2,0.1c13.1,11.6,15.6,30.9,8,46.3c-0.3,0.6-0.7,1.1-1.2,1.4
				C399.7,559.3,398.3,561.4,396.4,563.2z M529.6,598.1c-0.9,0.9-2.2,1.5-3.7,1.2c-19.8-3.3-39.9-3.2-59.9-3.9
				c-20.3-0.7-40.7-1.6-61.1-1.6c-3.7,0-4.8-4.1-3.2-6.4c0-0.8,0.4-1.7,1.1-2.5c12.8-13.7,22.2-33.6,19.1-52.7c0,0,0,0,0-0.1
				c-0.8-2.4,0.4-5.6,3.6-5.6h81.7c3.7,0,4.8,4.2,3.1,6.5v0.1c-2.5,12.2-4.1,23.2,1.5,34.8c4.6,9.5,11.3,18.3,21.1,22.9
				C537.6,593,534.1,599.5,529.6,598.1z M538,575.5c-0.1-0.1-0.1-0.2-0.2-0.3c-9.3-6.9-14-16.4-14.2-28.8c0-0.3,0-0.7,0.1-0.9
				c-2.4-22.7,22.2-44.2,43.8-44.7c0.8,0,1.5,0.2,2.1,0.5c12.6,0.1,25,6.7,32.9,16.3c9.5,11.4,10.3,26.3,7.5,40.4
				c-0.1,0.6-0.3,1.1-0.6,1.5c-4.4,15.6-18.2,24.8-34.2,26.7C563,587.5,545.7,586.5,538,575.5z"/>
			<circle class="st0" cx="567.6" cy="543.7" r="25.3"/>
			<circle class="st0" cx="362.9" cy="538.1" r="25.3"/>
			<circle class="st0" cx="119.3" cy="477.9" r="11"/>
			<circle class="st0" cx="64.2" cy="384.2" r="11"/>
		</g>
		<g>
			
				<image style="display:none;overflow:visible;enable-background:new    ;" width="500" height="500" xlink:href="../../../Downloads/Cleckhudder market logo/Cleckhudder market logo/CM-removebg-preview (2).png"  transform="matrix(3.4189 0 0 3.4189 -419.4337 -431.0654)">
			</image>
			<path class="st0" d="M568.3,601.5c65.4,4.1,63.3-63.3,63.3-63.3c55.1-21.4-10.2-33.7-10.2-33.7c-54.1-47-90.9-8.2-90.9-8.2H410
				c-18.4-26.6-63.3-20.4-63.3-20.4l-2-11.6l270.6-0.7c70.5,8.2,71.5-57.9,71.5-57.9l32.7-133.1c16.3-57.2-31.7-73.5-31.7-73.5
				c16.3-20.4,0-106.2,0-106.2c-57.2,2-101.1,69.4-101.1,60.3c0-9.2-18.4-43.9-18.4-43.9c-67.4,38.8-53.1,80.7-53.1,80.7l-12.3-4.1
				c3.1-68.4-91.8-121.6-91.8-121.6c-6.1,20.4-20.4,71.5-20.4,71.5C359,76.6,236.4,49,236.4,49c-9.2,88.9,20.4,153.2,20.4,153.2
				h-20.4c0,0-10.2-17.4-19.4-46s-28.6-17.4-28.6-17.4L81.2,156.3c0,0-35.2,1.5-11.2,24.5s29.1,1,29.1,1c15.3,12.3,23-3.6,23-3.6
				c24.5,11.7,35.2-16.9,35.2-16.9l29.6-3.6l25,65.9c0,0-85.3,2-112.3,16.9c-27.1,14.8,3.1,21.4,8.7,14.8
				c5.6-6.6,110.8-15.8,110.8-15.8l14.3,44.9c0,0-173.1,12.3-207.9,35.7s8.2,40.9,20,26.6C57.2,332.4,249.2,312,249.2,312l11.7,31.1
				c-15.3-4.1-114.4,13.8-150.6,21.4c-0.9,0.2-1.8,0.4-2.7,0.6c-32.6,8-14.3,25.7,2.1,16.8c16.9-9.2,157.8-21.4,157.8-21.4l9.7,24.5
				c-27.6-7.1-201,27.6-228.2,33.9c-2.6,0.6-5.1,1.5-7.5,2.8c-18.9,10.1-14,17.7-6.2,22.5c6.6,4.1,14.6,5.3,22.3,3.8l101.2-20.1
				c22.5-7.1,127.7-14.3,127.7-14.3l11.2,32.3l-141.8,19.3c-0.8,0.1-1.5,0.3-2.2,0.6c-22.8,10.2,1.4,16.9,1.4,16.9l150.8-22.2
				l16.3,29.6L312,504.5l-35.7,1l-151.1,20.4c-27.6,11.7-12.3,26.6,3.7,24.2c2.3-0.3,4.6,0.6,7,0.3l100.6-11.2
				c42.9-8.7,72.8-4.3,68.4-4.1c0,53.1,44.9,60.3,44.9,60.3l-6.1,8.2c-76.9,0-161.8,46.1-195.9,66.8
				c160.8-89.1,636.1-13.7,636.1-13.7C756.3,624,568.3,601.5,568.3,601.5z M441.5,295.2v-0.3c-0.1-0.6-0.1-1.3,0-2v-39.4
				c0-2.4,1.5-3.6,3.2-3.9c0.5-0.3,1.1-0.4,1.7-0.4h82.3c0.4,0,0.8,0.1,1.1,0.2c1.8,0.2,3.4,1.4,3.4,3.9v39.3c0,0.8-0.2,1.5-0.5,2
				c-0.3,1.6-1.5,3.1-3.5,3.1c-0.2,0-0.3,0-0.4,0c-0.4,0.2-0.9,0.3-1.5,0.3H448C444.7,298.4,443.4,298.2,441.5,295.2z M532.3,415.4
				c0,2-1.2,3.2-2.7,3.7c-0.6,0.4-1.3,0.6-2.2,0.6h-71.2c-1.5,0-2.6-0.7-3.2-1.6c-0.9-0.6-1.6-1.7-1.6-3.2v-35.5
				c-0.5-2.3,0.8-5,3.8-5h73c2.9,0,4.1,2.4,3.9,4.6c0.1,0.4,0.2,0.8,0.2,1.2V415.4z M530.8,350.6c-0.2,2-1.5,3.2-3,3.7
				c-0.6,0.7-1.6,1.1-2.8,1.1h-74c-1.3,0-2.3-0.5-3-1.3c-1.6-0.4-2.9-1.7-2.9-3.7v-31.2c-0.6-5.7-0.4-6.3,3.3-6.3h80.9
				c1.7,0,2.9,0.9,3.4,2.1c1,0.6,1.7,1.7,1.6,3.3C534,329,531.6,339.7,530.8,350.6z M654.7,384c-0.3,19.8-15.8,40.6-32,40.5
				c-1.1,0-1.8-0.5-2.4-1.2c-1.7-0.3-3.3-1.8-3.1-4.6c0.7-13.3,2.1-26.6,2.8-40c0.2-3.4,2.7-4.7,4.8-4.1l26.9,1.3c3.1,0.1,4,4,3,6.6
				C654.6,383.1,654.7,383.5,654.7,384z M674,321.3c-3.5,10.6-6.8,21.2-11,31.6c-0.5,1.1-1.3,1.9-2.2,2.2c-0.6,1.2-1.7,2.1-3.4,2
				l-26-0.5c-3.2-0.1-4.3-3.4-3.2-5.7l0.7-31.3c0.1-2.3,1.7-3.5,3.4-3.7c0.5-0.3,1.1-0.4,1.8-0.4l36,0.7c0.8,0,1.4,0.2,1.9,0.6
				C673.6,317.5,674.7,319.1,674,321.3z M693.6,263c-2.9,6.9-3.3,14.7-6.2,21.6c-2.8,6.6-4.7,13.6-6.9,20.4c-0.9,2.8-7.5,1.4-9.6,1
				c-0.1,0-0.3,0.1-0.4,0.1c-9,0.3-17.9-1.4-26.8-1.9c-2.2-0.4-3.9,0.1-4.9-1.5c-1-1.3-1-3-0.6-4.6v-35.4c0-1.1,0.4-2,1-2.6
				c0.3-1.7,1.6-3.2,3.8-3.2h45.9C691.5,256.1,695.1,259.4,693.6,263z M648.5,223.2h46.7c0.1,0,0.2,0,0.3,0c2.3-0.6,5.2,0.7,5.2,3.8
				c0.2,6.5-1.2,12.9-3.5,18.9c-0.7,1.9-1.8,3.4-3.4,3.5c-0.6,0.5-1.9,0-2.8,0h-45l0,0c-3.3,0.1-5.8-0.1-5.8-3.5
				c0.1-6.5,1.2-12.9,1.8-19.4C642.2,222.9,645,222.8,648.5,223.2z M615.5,168.5c0.9-5.9,5.2-12.2,8.6-16.9c3-4.1,8.4-11.3,14.3-8.2
				c6.2,3.3,1.3,11-1.3,15.1c-3,4.8-6.5,10.7-10.8,14.4c-1,0.8-2.1,1.2-3.2,1.1c-0.6,0.7-1.6,1.1-2.8,1.1c-0.1,0-0.2,0-0.3,0
				s-0.2,0-0.3,0c-2.5,0-3.8-1.9-3.9-3.8C615.6,170.5,615.3,169.6,615.5,168.5z M551.7,235.9v-12.3c0-0.4,0.1-0.8,0.2-1.2
				c0.2-1.8,1.5-3.5,3.9-3.5h67.4c0.9,0,1.6,0.3,2.2,0.7c1.5,0.4,2.8,1.7,2.8,3.7v16.3c-1.8,2.7-1.8,2.7-7.1,2.7H556
				c-2.8,0-4.6-2.3-4.4-4.5C551.4,237.3,551.7,236.7,551.7,235.9z M550,257.6c0-3.6,2.9-3.8,6.3-3.3h61.3c1.7,0,2.8,0.9,3.4,2
				c0.7,0.6,1.1,1.6,1.1,2.8c0,12-4.8,23.3-5.1,35.2c0,1.2-0.5,2.1-1.2,2.8c0,2-1.3,4.1-3.9,4.1h-56.2c-2.7,0.3-5.8-0.1-5.8-3.5
				v-40.1H550z M547.7,317.4c0-3,2.5-4.3,4.7-3.8h56.4c2.9,0,4.1,2.9,3.5,5.3c0,0.3,0,0.6-0.1,0.9c-1.8,9.9-3.8,19.9-7.3,29.4
				c-0.2,0.5-0.5,1-0.8,1.4c-0.1,0.5-0.2,0.9-0.4,1.3c-0.2,1.8-1.4,3.4-3.6,3.4H552c-1.3,0-2.3-0.6-2.9-1.5
				c-0.8-0.6-1.4-1.7-1.4-3.1L547.7,317.4L547.7,317.4z M545.7,377.1c0-3.4,3-4.6,5.1-3.5h44c1.3,0,2.2,0.6,2.7,1.6
				c1.2,0.8,2,2.4,1.6,4.3c-0.2,0.9-0.4,1.8-0.6,2.7c0.1,0.5,0,1.1-0.1,1.7c-3.4,11.7-4.4,24-8.9,35.4c-1,2.5-3.6,3.1-5.6,2.5
				c-0.5,0.5-1.2,0.8-2.1,0.8h-31.9c-0.4,0-0.7-0.1-1-0.2c-1.6-0.2-3.2-1.4-3.2-3.9V377.1z M464.6,145c7.6,13,19.4,23.7,21,39.3
				c0.2,1.9-1.4,3.3-3,3.9c-16.9,6.7-19.8-29.6-24.5-38.1c-0.1-0.2-0.2-0.4-0.2-0.6c-0.1-0.2-0.2-0.3-0.3-0.5
				C455,144.6,462,140.5,464.6,145z M438.7,222c0-1.9,1-3.1,2.3-3.6c0.5-1.4,1.6-2.5,3.4-2.5h90.5c3.3,0,4.4,3.8,3.1,6.2v10.8
				c0,0.7-0.1,1.2-0.3,1.7c-0.4,1.5-1.6,2.7-3.4,2.7h-90.6c-2.2,0.7-5-0.5-5-3.7L438.7,222L438.7,222z M434.1,377.9
				c0.9,0.6,1.6,1.7,1.6,3.3v39.1c0,1.5-0.6,2.6-1.5,3.2c-0.6,0.9-1.5,1.6-2.9,1.6h-31.9c-1.6,1-3.6,0.8-4.6-1.5
				c-5.8-12.9-10.5-26.5-12.6-40.8c-0.2-1.3,0.1-2.4,0.7-3.3c0.2-1.8,1.4-3.4,3.5-3.4h44.7C432.5,376.1,433.5,376.9,434.1,377.9z
				 M430.2,321.2v30.7c0,0.4-0.1,0.8-0.2,1.1c0.1,2.1-1.2,4.2-3.9,4.2h-43.9c-1.9,0-3.1-1.1-3.6-2.4c-0.7-0.5-1.3-1.1-1.6-2.1
				c-3.5-10.3-4.8-21-6.9-31.7c-0.7-3.6,3-5.7,5.5-4.9h50.7C429.4,316.1,430.7,318.9,430.2,321.2z M423.8,259v37.6
				c0,3.5-3.2,3.7-6.4,3.1c-0.1,0-0.2,0-0.2,0h-48.3c-6.5-0.5-4.9,2.2-6.5-0.5c-3.5-6-4.9-12.7-6.7-19.3c-1.9-7-4.2-13.8-5.1-21
				c-0.1-0.7,0-1.3,0.2-1.8c0.3-1.6,1.6-3.1,3.8-3.1h63.1c1.3,0,2.3,0.5,2.9,1.2C422.3,255.7,423.8,256.9,423.8,259z M344,219
				c0.8-0.1,2.1-0.1,4.1,0l64.5,0.6c5.7,0.4,6.7-0.9,6.7,3.3c0,3.8,0.3,7.5,0.7,11.3c0.1,0.8-0.1,1.6-0.5,2.3c-0.3,2-1.5,3.7-3.8,4
				H353c-0.3,0-0.4-0.1-0.9,0c-4.1,0.4-4.9,1-5.7-1.2c-1.9-4.9-3.9-9.6-5.1-14.8C340,219.5,341.2,219.2,344,219z M252.1,243.5
				c-2.7,0-4-2-3.9-3.9c-0.1-0.3-0.2-0.7-0.2-1v-12.8c0-1.1,0.2-2.4,0.8-3c0,0,0.1,0,0.1-0.1c0,0,0,0,0.1-0.1c0.6-1.1,2-1.5,3.8-1.5
				h66.1c4.8,0,6.7-0.7,6.7,2.8v15c0,0.4-0.1,0.7-0.1,1c0,1.8-1.3,3.7-3.9,3.7h-69.5L252.1,243.5L252.1,243.5z M277.2,301.3
				c-0.6,0-1.2-0.1-1.7-0.3c-0.8-0.2-1.6-0.6-2.2-1.4c-3.3-4.2-4-9.5-5.4-14.5c-1.9-6.9-4.7-13.6-6.1-20.6c-1.2-5.7,4.8-5.7,6.2-5.7
				h61.3c3.1,0,2,0.5,3.4,4.9c0.1,0.2,0.2,0.4,0.2,0.7c2.5,10.1,7.7,19.4,11.1,29.2c0.2,0.7,0.2,1.3,0.1,1.8
				c0.4,1.2,0.2,2.5-0.6,3.5c-0.4,1.3-1.6,2.4-3.5,2.4H277.2z M302.1,359.8c-1.5,0-2.6-0.7-3.2-1.6c-0.2-0.2-0.4-0.4-0.6-0.7
				c-7.3-9.9-10.5-22.1-15.3-33.4c-0.7-1.6-0.3-3.2,0.6-4.4c0.5-1.4,1.7-2.4,3.6-2.4h58.2c0.9,0,1.6,0.3,2.2,0.7
				c1.3,0.3,2.5,1.1,3,2.7c4,11,6.5,21,11.8,33.1c1.7,3.8-1.8,6.8-4.8,5.8c-0.4,0.1-0.9,0.2-1.4,0.2L302.1,359.8L302.1,359.8z
				 M306.8,383.7c-1.4-2.9,0.8-5.6,3.1-6.1c0.5-0.2,1.1-0.4,1.7-0.4h52.1c2.6,0,3.9,2,3.9,4c4,13.1,8.1,26.1,10.9,39.5
				c0.5,2.3-0.8,3.9-2.5,4.7c-0.6,0.7-1.6,1.1-2.8,1.1h-43c-1.7,0.7-3.7,0.4-4.8-1.7C318.5,411.5,313.2,397.3,306.8,383.7z
				 M396.4,563.2c-1.5,2.2-3.2,4.2-5.1,6.1c-0.1,0.1-0.2,0.2-0.2,0.2c-0.3,0.3-0.6,0.6-0.9,0.9c-0.3,0.3-0.7,0.5-1,0.7
				c-8.4,6.7-17.9,9.7-28.8,8.5c-9.6-1.1-20.3-4.6-26.9-12.1c-6.6-6.2-11-15.8-12.1-23.9c0-0.3-0.1-0.6,0-0.9
				c-0.1-1.4-0.1-2.8-0.1-4.2c-0.3-2.9,0.2-5.6,1-8.5c0-0.3,0-0.7,0.1-1.1c0.8-3.7,2.4-7,4.6-10c0.1-0.2,0.2-0.5,0.3-0.7
				c0.3-0.6,0.6-1.2,1-1.6c5.2-11.9,18.9-20.2,31.7-20.3c0.3,0,0.6,0,0.8,0.1c0.2,0,0.3,0.1,0.5,0.1c10.8-0.9,22.3,2.3,29.6,9.8
				c0.2,0.1,0.4,0.2,0.5,0.4c0.9,0.7,1.6,1.5,2.4,2.4c0.1,0.1,0.1,0.1,0.2,0.1c13.1,11.6,15.6,30.9,8,46.3c-0.3,0.6-0.7,1.1-1.2,1.4
				C399.7,559.3,398.3,561.4,396.4,563.2z M529.6,598.1c-0.9,0.9-2.2,1.5-3.7,1.2c-19.8-3.3-39.9-3.2-59.9-3.9
				c-20.3-0.7-40.7-1.6-61.1-1.6c-3.7,0-4.8-4.1-3.2-6.4c0-0.8,0.4-1.7,1.1-2.5c12.8-13.7,22.2-33.6,19.1-52.7c0,0,0,0,0-0.1
				c-0.8-2.4,0.4-5.6,3.6-5.6h81.7c3.7,0,4.8,4.2,3.1,6.5v0.1c-2.5,12.2-4.1,23.2,1.5,34.8c4.6,9.5,11.3,18.3,21.1,22.9
				C537.6,593,534.1,599.5,529.6,598.1z M538,575.5c-0.1-0.1-0.1-0.2-0.2-0.3c-9.3-6.9-14-16.4-14.2-28.8c0-0.3,0-0.7,0.1-0.9
				c-2.4-22.7,22.2-44.2,43.8-44.7c0.8,0,1.5,0.2,2.1,0.5c12.6,0.1,25,6.7,32.9,16.3c9.5,11.4,10.3,26.3,7.5,40.4
				c-0.1,0.6-0.3,1.1-0.6,1.5c-4.4,15.6-18.2,24.8-34.2,26.7C563,587.5,545.7,586.5,538,575.5z"/>
			<circle class="st0" cx="567.6" cy="543.7" r="25.3"/>
			<circle class="st0" cx="362.9" cy="538.1" r="25.3"/>
			<circle class="st0" cx="119.3" cy="477.9" r="11"/>
			<circle class="st0" cx="64.2" cy="384.2" r="11"/>
			<text transform="matrix(1 0 0 1 306.3683 754.8838)" class="st0 st1 st2"> </text>
		</g>
		<g>
			<path class="st0" d="M568.3,601.5c65.4,4.1,63.3-63.3,63.3-63.3c55.1-21.4-10.2-33.7-10.2-33.7c-54.1-47-90.9-8.2-90.9-8.2H410
				c-18.4-26.6-63.3-20.4-63.3-20.4l-2-11.6l270.6-0.7c70.5,8.2,71.5-57.9,71.5-57.9l32.7-133.1c16.3-57.2-31.7-73.5-31.7-73.5
				c16.3-20.4,0-106.2,0-106.2c-57.2,2-101.1,69.4-101.1,60.3c0-9.2-18.4-43.9-18.4-43.9c-67.4,38.8-53.1,80.7-53.1,80.7l-12.3-4.1
				c3.1-68.4-91.8-121.6-91.8-121.6c-6.1,20.4-20.4,71.5-20.4,71.5C359,76.6,236.4,49,236.4,49c-9.2,88.9,20.4,153.2,20.4,153.2
				h-20.4c0,0-10.2-17.4-19.4-46s-28.6-17.4-28.6-17.4L81.2,156.3c0,0-35.2,1.5-11.2,24.5s29.1,1,29.1,1c15.3,12.3,23-3.6,23-3.6
				c24.5,11.7,35.2-16.9,35.2-16.9l29.6-3.6l25,65.9c0,0-85.3,2-112.3,16.9c-27.1,14.8,3.1,21.4,8.7,14.8
				c5.6-6.6,110.8-15.8,110.8-15.8l14.3,44.9c0,0-173.1,12.3-207.9,35.7s8.2,40.9,20,26.6C57.2,332.4,249.2,312,249.2,312l11.7,31.1
				c-15.3-4.1-114.4,13.8-150.6,21.4c-0.9,0.2-1.8,0.4-2.7,0.6c-32.6,8-14.3,25.7,2.1,16.8c16.9-9.2,157.8-21.4,157.8-21.4l9.7,24.5
				c-27.6-7.1-201,27.6-228.2,33.9c-2.6,0.6-5.1,1.5-7.5,2.8c-18.9,10.1-14,17.7-6.2,22.5c6.6,4.1,14.6,5.3,22.3,3.8l101.2-20.1
				c22.5-7.1,127.7-14.3,127.7-14.3l11.2,32.3l-141.8,19.3c-0.8,0.1-1.5,0.3-2.2,0.6c-22.8,10.2,1.4,16.9,1.4,16.9l150.8-22.2
				l16.3,29.6L312,504.5l-35.7,1l-151.1,20.4c-27.6,11.7-12.3,26.6,3.7,24.2c2.3-0.3,4.6,0.6,7,0.3l100.6-11.2
				c42.9-8.7,72.8-4.3,68.4-4.1c0,53.1,44.9,60.3,44.9,60.3l-6.1,8.2c-76.9,0-161.8,46.1-195.9,66.8
				c160.8-89.1,636.1-13.7,636.1-13.7C756.3,624,568.3,601.5,568.3,601.5z M441.5,295.2v-0.3c-0.1-0.6-0.1-1.3,0-2v-39.4
				c0-2.4,1.5-3.6,3.2-3.9c0.5-0.3,1.1-0.4,1.7-0.4h82.3c0.4,0,0.8,0.1,1.1,0.2c1.8,0.2,3.4,1.4,3.4,3.9v39.3c0,0.8-0.2,1.5-0.5,2
				c-0.3,1.6-1.5,3.1-3.5,3.1c-0.2,0-0.3,0-0.4,0c-0.4,0.2-0.9,0.3-1.5,0.3H448C444.7,298.4,443.4,298.2,441.5,295.2z M532.3,415.4
				c0,2-1.2,3.2-2.7,3.7c-0.6,0.4-1.3,0.6-2.2,0.6h-71.2c-1.5,0-2.6-0.7-3.2-1.6c-0.9-0.6-1.6-1.7-1.6-3.2v-35.5
				c-0.5-2.3,0.8-5,3.8-5h73c2.9,0,4.1,2.4,3.9,4.6c0.1,0.4,0.2,0.8,0.2,1.2V415.4z M530.8,350.6c-0.2,2-1.5,3.2-3,3.7
				c-0.6,0.7-1.6,1.1-2.8,1.1h-74c-1.3,0-2.3-0.5-3-1.3c-1.6-0.4-2.9-1.7-2.9-3.7v-31.2c-0.6-5.7-0.4-6.3,3.3-6.3h80.9
				c1.7,0,2.9,0.9,3.4,2.1c1,0.6,1.7,1.7,1.6,3.3C534,329,531.6,339.7,530.8,350.6z M654.7,384c-0.3,19.8-15.8,40.6-32,40.5
				c-1.1,0-1.8-0.5-2.4-1.2c-1.7-0.3-3.3-1.8-3.1-4.6c0.7-13.3,2.1-26.6,2.8-40c0.2-3.4,2.7-4.7,4.8-4.1l26.9,1.3c3.1,0.1,4,4,3,6.6
				C654.6,383.1,654.7,383.5,654.7,384z M674,321.3c-3.5,10.6-6.8,21.2-11,31.6c-0.5,1.1-1.3,1.9-2.2,2.2c-0.6,1.2-1.7,2.1-3.4,2
				l-26-0.5c-3.2-0.1-4.3-3.4-3.2-5.7l0.7-31.3c0.1-2.3,1.7-3.5,3.4-3.7c0.5-0.3,1.1-0.4,1.8-0.4l36,0.7c0.8,0,1.4,0.2,1.9,0.6
				C673.6,317.5,674.7,319.1,674,321.3z M693.6,263c-2.9,6.9-3.3,14.7-6.2,21.6c-2.8,6.6-4.7,13.6-6.9,20.4c-0.9,2.8-7.5,1.4-9.6,1
				c-0.1,0-0.3,0.1-0.4,0.1c-9,0.3-17.9-1.4-26.8-1.9c-2.2-0.4-3.9,0.1-4.9-1.5c-1-1.3-1-3-0.6-4.6v-35.4c0-1.1,0.4-2,1-2.6
				c0.3-1.7,1.6-3.2,3.8-3.2h45.9C691.5,256.1,695.1,259.4,693.6,263z M648.5,223.2h46.7c0.1,0,0.2,0,0.3,0c2.3-0.6,5.2,0.7,5.2,3.8
				c0.2,6.5-1.2,12.9-3.5,18.9c-0.7,1.9-1.8,3.4-3.4,3.5c-0.6,0.5-1.9,0-2.8,0h-45l0,0c-3.3,0.1-5.8-0.1-5.8-3.5
				c0.1-6.5,1.2-12.9,1.8-19.4C642.2,222.9,645,222.8,648.5,223.2z M615.5,168.5c0.9-5.9,5.2-12.2,8.6-16.9c3-4.1,8.4-11.3,14.3-8.2
				c6.2,3.3,1.3,11-1.3,15.1c-3,4.8-6.5,10.7-10.8,14.4c-1,0.8-2.1,1.2-3.2,1.1c-0.6,0.7-1.6,1.1-2.8,1.1c-0.1,0-0.2,0-0.3,0
				s-0.2,0-0.3,0c-2.5,0-3.8-1.9-3.9-3.8C615.6,170.5,615.3,169.6,615.5,168.5z M551.7,235.9v-12.3c0-0.4,0.1-0.8,0.2-1.2
				c0.2-1.8,1.5-3.5,3.9-3.5h67.4c0.9,0,1.6,0.3,2.2,0.7c1.5,0.4,2.8,1.7,2.8,3.7v16.3c-1.8,2.7-1.8,2.7-7.1,2.7H556
				c-2.8,0-4.6-2.3-4.4-4.5C551.4,237.3,551.7,236.7,551.7,235.9z M550,257.6c0-3.6,2.9-3.8,6.3-3.3h61.3c1.7,0,2.8,0.9,3.4,2
				c0.7,0.6,1.1,1.6,1.1,2.8c0,12-4.8,23.3-5.1,35.2c0,1.2-0.5,2.1-1.2,2.8c0,2-1.3,4.1-3.9,4.1h-56.2c-2.7,0.3-5.8-0.1-5.8-3.5
				v-40.1H550z M547.7,317.4c0-3,2.5-4.3,4.7-3.8h56.4c2.9,0,4.1,2.9,3.5,5.3c0,0.3,0,0.6-0.1,0.9c-1.8,9.9-3.8,19.9-7.3,29.4
				c-0.2,0.5-0.5,1-0.8,1.4c-0.1,0.5-0.2,0.9-0.4,1.3c-0.2,1.8-1.4,3.4-3.6,3.4H552c-1.3,0-2.3-0.6-2.9-1.5
				c-0.8-0.6-1.4-1.7-1.4-3.1L547.7,317.4L547.7,317.4z M545.7,377.1c0-3.4,3-4.6,5.1-3.5h44c1.3,0,2.2,0.6,2.7,1.6
				c1.2,0.8,2,2.4,1.6,4.3c-0.2,0.9-0.4,1.8-0.6,2.7c0.1,0.5,0,1.1-0.1,1.7c-3.4,11.7-4.4,24-8.9,35.4c-1,2.5-3.6,3.1-5.6,2.5
				c-0.5,0.5-1.2,0.8-2.1,0.8h-31.9c-0.4,0-0.7-0.1-1-0.2c-1.6-0.2-3.2-1.4-3.2-3.9V377.1z M464.6,145c7.6,13,19.4,23.7,21,39.3
				c0.2,1.9-1.4,3.3-3,3.9c-16.9,6.7-19.8-29.6-24.5-38.1c-0.1-0.2-0.2-0.4-0.2-0.6c-0.1-0.2-0.2-0.3-0.3-0.5
				C455,144.6,462,140.5,464.6,145z M438.7,222c0-1.9,1-3.1,2.3-3.6c0.5-1.4,1.6-2.5,3.4-2.5h90.5c3.3,0,4.4,3.8,3.1,6.2v10.8
				c0,0.7-0.1,1.2-0.3,1.7c-0.4,1.5-1.6,2.7-3.4,2.7h-90.6c-2.2,0.7-5-0.5-5-3.7L438.7,222L438.7,222z M434.1,377.9
				c0.9,0.6,1.6,1.7,1.6,3.3v39.1c0,1.5-0.6,2.6-1.5,3.2c-0.6,0.9-1.5,1.6-2.9,1.6h-31.9c-1.6,1-3.6,0.8-4.6-1.5
				c-5.8-12.9-10.5-26.5-12.6-40.8c-0.2-1.3,0.1-2.4,0.7-3.3c0.2-1.8,1.4-3.4,3.5-3.4h44.7C432.5,376.1,433.5,376.9,434.1,377.9z
				 M430.2,321.2v30.7c0,0.4-0.1,0.8-0.2,1.1c0.1,2.1-1.2,4.2-3.9,4.2h-43.9c-1.9,0-3.1-1.1-3.6-2.4c-0.7-0.5-1.3-1.1-1.6-2.1
				c-3.5-10.3-4.8-21-6.9-31.7c-0.7-3.6,3-5.7,5.5-4.9h50.7C429.4,316.1,430.7,318.9,430.2,321.2z M423.8,259v37.6
				c0,3.5-3.2,3.7-6.4,3.1c-0.1,0-0.2,0-0.2,0h-48.3c-6.5-0.5-4.9,2.2-6.5-0.5c-3.5-6-4.9-12.7-6.7-19.3c-1.9-7-4.2-13.8-5.1-21
				c-0.1-0.7,0-1.3,0.2-1.8c0.3-1.6,1.6-3.1,3.8-3.1h63.1c1.3,0,2.3,0.5,2.9,1.2C422.3,255.7,423.8,256.9,423.8,259z M344,219
				c0.8-0.1,2.1-0.1,4.1,0l64.5,0.6c5.7,0.4,6.7-0.9,6.7,3.3c0,3.8,0.3,7.5,0.7,11.3c0.1,0.8-0.1,1.6-0.5,2.3c-0.3,2-1.5,3.7-3.8,4
				H353c-0.3,0-0.4-0.1-0.9,0c-4.1,0.4-4.9,1-5.7-1.2c-1.9-4.9-3.9-9.6-5.1-14.8C340,219.5,341.2,219.2,344,219z M252.1,243.5
				c-2.7,0-4-2-3.9-3.9c-0.1-0.3-0.2-0.7-0.2-1v-12.8c0-1.1,0.2-2.4,0.8-3c0,0,0.1,0,0.1-0.1c0,0,0,0,0.1-0.1c0.6-1.1,2-1.5,3.8-1.5
				h66.1c4.8,0,6.7-0.7,6.7,2.8v15c0,0.4-0.1,0.7-0.1,1c0,1.8-1.3,3.7-3.9,3.7h-69.5L252.1,243.5L252.1,243.5z M277.2,301.3
				c-0.6,0-1.2-0.1-1.7-0.3c-0.8-0.2-1.6-0.6-2.2-1.4c-3.3-4.2-4-9.5-5.4-14.5c-1.9-6.9-4.7-13.6-6.1-20.6c-1.2-5.7,4.8-5.7,6.2-5.7
				h61.3c3.1,0,2,0.5,3.4,4.9c0.1,0.2,0.2,0.4,0.2,0.7c2.5,10.1,7.7,19.4,11.1,29.2c0.2,0.7,0.2,1.3,0.1,1.8
				c0.4,1.2,0.2,2.5-0.6,3.5c-0.4,1.3-1.6,2.4-3.5,2.4H277.2z M302.1,359.8c-1.5,0-2.6-0.7-3.2-1.6c-0.2-0.2-0.4-0.4-0.6-0.7
				c-7.3-9.9-10.5-22.1-15.3-33.4c-0.7-1.6-0.3-3.2,0.6-4.4c0.5-1.4,1.7-2.4,3.6-2.4h58.2c0.9,0,1.6,0.3,2.2,0.7
				c1.3,0.3,2.5,1.1,3,2.7c4,11,6.5,21,11.8,33.1c1.7,3.8-1.8,6.8-4.8,5.8c-0.4,0.1-0.9,0.2-1.4,0.2L302.1,359.8L302.1,359.8z
				 M306.8,383.7c-1.4-2.9,0.8-5.6,3.1-6.1c0.5-0.2,1.1-0.4,1.7-0.4h52.1c2.6,0,3.9,2,3.9,4c4,13.1,8.1,26.1,10.9,39.5
				c0.5,2.3-0.8,3.9-2.5,4.7c-0.6,0.7-1.6,1.1-2.8,1.1h-43c-1.7,0.7-3.7,0.4-4.8-1.7C318.5,411.5,313.2,397.3,306.8,383.7z
				 M396.4,563.2c-1.5,2.2-3.2,4.2-5.1,6.1c-0.1,0.1-0.2,0.2-0.2,0.2c-0.3,0.3-0.6,0.6-0.9,0.9c-0.3,0.3-0.7,0.5-1,0.7
				c-8.4,6.7-17.9,9.7-28.8,8.5c-9.6-1.1-20.3-4.6-26.9-12.1c-6.6-6.2-11-15.8-12.1-23.9c0-0.3-0.1-0.6,0-0.9
				c-0.1-1.4-0.1-2.8-0.1-4.2c-0.3-2.9,0.2-5.6,1-8.5c0-0.3,0-0.7,0.1-1.1c0.8-3.7,2.4-7,4.6-10c0.1-0.2,0.2-0.5,0.3-0.7
				c0.3-0.6,0.6-1.2,1-1.6c5.2-11.9,18.9-20.2,31.7-20.3c0.3,0,0.6,0,0.8,0.1c0.2,0,0.3,0.1,0.5,0.1c10.8-0.9,22.3,2.3,29.6,9.8
				c0.2,0.1,0.4,0.2,0.5,0.4c0.9,0.7,1.6,1.5,2.4,2.4c0.1,0.1,0.1,0.1,0.2,0.1c13.1,11.6,15.6,30.9,8,46.3c-0.3,0.6-0.7,1.1-1.2,1.4
				C399.7,559.3,398.3,561.4,396.4,563.2z M529.6,598.1c-0.9,0.9-2.2,1.5-3.7,1.2c-19.8-3.3-39.9-3.2-59.9-3.9
				c-20.3-0.7-40.7-1.6-61.1-1.6c-3.7,0-4.8-4.1-3.2-6.4c0-0.8,0.4-1.7,1.1-2.5c12.8-13.7,22.2-33.6,19.1-52.7c0,0,0,0,0-0.1
				c-0.8-2.4,0.4-5.6,3.6-5.6h81.7c3.7,0,4.8,4.2,3.1,6.5v0.1c-2.5,12.2-4.1,23.2,1.5,34.8c4.6,9.5,11.3,18.3,21.1,22.9
				C537.6,593,534.1,599.5,529.6,598.1z M538,575.5c-0.1-0.1-0.1-0.2-0.2-0.3c-9.3-6.9-14-16.4-14.2-28.8c0-0.3,0-0.7,0.1-0.9
				c-2.4-22.7,22.2-44.2,43.8-44.7c0.8,0,1.5,0.2,2.1,0.5c12.6,0.1,25,6.7,32.9,16.3c9.5,11.4,10.3,26.3,7.5,40.4
				c-0.1,0.6-0.3,1.1-0.6,1.5c-4.4,15.6-18.2,24.8-34.2,26.7C563,587.5,545.7,586.5,538,575.5z"/>
			<circle class="st0" cx="567.6" cy="543.7" r="25.3"/>
			<circle class="st0" cx="362.9" cy="538.1" r="25.3"/>
			<circle class="st0" cx="119.3" cy="477.9" r="11"/>
			<circle class="st0" cx="64.2" cy="384.2" r="11"/>
		</g>
	</g>
	<g id="Layer_3" class="st3">
		<path class="st4" d="M142.4,664.6c-5.5,3.1-10.7,6.3-15.5,9.8C127,674.4,132.6,670.5,142.4,664.6z"/>
		<path class="st5" d="M658.1,290.7c-0.2,0.3-0.3,0.7-0.5,1c1.5,0,2.9,0.1,4.4,0.1c0-0.2,0.1-0.4,0.1-0.6
			C660.8,291.7,659.3,291.5,658.1,290.7z"/>
		<rect x="439.4" y="251.5" class="st5" width="80.5" height="32.5"/>
		<path class="st5" d="M517.4,341.5c0-8.9,1.6-17.6,3.3-26.4h-72.9v26.4H517.4z"/>
		<path class="st5" d="M650.3,349.1c0.8-2,1.5-4.1,2.2-6.1c1.5-6.4,3.2-12.8,3.7-19.3h-27.1c0,0.1,0,0.3,0,0.4v25.1h21.2
			L650.3,349.1L650.3,349.1z"/>
		<path class="st5" d="M396.6,411.2h30.7v-32.5h-41.4c1.7,7.9,4.1,15.7,6.7,23.4C393.8,405.2,395.1,408.2,396.6,411.2z"/>
		<path class="st5" d="M597.2,547.7c0.1-0.4,0.2-0.7,0.3-1c1.6-10.7,0.6-22-6.8-30.3c-7-7.9-17.2-13.2-27.9-12.8
			c-0.8,0-1.4-0.1-2-0.4c-9.5,0.7-18.3,5.7-24.7,12.6c-6.4,6.9-12.5,19-8.4,28.5c0.6,1.5,0.4,2.9-0.3,4c1.3,5.2,3.8,9.4,7.7,12.9
			c1.3,0.2,2.5,0.9,3,2c0.1,0.2,0.3,0.5,0.4,0.7c0,0,0.1,0,0.1,0.1l0.1,0.1c0.5,0.4,1.1,0.7,1.7,1.1c0.1,0.1,0.3,0.1,0.3,0.1
			c0.2,0.1,0.4,0.1,0.7,0.2c1.9,0.5,3,2.4,2.9,4.2c6.9,3.7,17.6,3.5,24.2,2.9C582.9,571,594.6,562.5,597.2,547.7z"/>
		<path class="st5" d="M563,595.7c65.4,4.1,63.3-63.3,63.3-63.3c55.1-21.4-10.2-33.7-10.2-33.7c-54.1-47-90.9-8.2-90.9-8.2H404.7
			c-18.4-26.6-63.3-20.4-63.3-20.4l-2-11.6l270.6-0.7c70.5,8.2,71.5-57.9,71.5-57.9l32.7-133.1c16.3-57.2-31.7-73.5-31.7-73.5
			c16.3-20.4,0-106.2,0-106.2c-57.2,2-101.1,69.4-101.1,60.3c0-9.2-18.4-43.9-18.4-43.9c-67.4,38.8-53.1,80.7-53.1,80.7l-12.3-4.1
			c3.1-68.4-91.9-121.5-91.9-121.5C399.6,79,385.3,130,385.3,130c-31.7-59.2-154.2-86.8-154.2-86.8c-9.2,88.9,20.4,153.2,20.4,153.2
			h-20.4c0,0-10.2-17.4-19.4-46S183.1,133,183.1,133L75.9,150.4c0,0-35.2,1.5-11.2,24.5s29.1,1,29.1,1c15.3,12.3,23-3.6,23-3.6
			c24.5,11.7,35.2-16.9,35.2-16.9l29.6-3.6l25,65.9c0,0-85.3,2-112.3,16.9c-27.1,14.8,3.1,21.4,8.7,14.8s110.8-15.8,110.8-15.8
			l14.3,44.9c0,0-173.1,12.3-207.9,35.7s8.2,40.9,20,26.6c11.7-14.3,203.7-34.7,203.7-34.7l11.7,31.1
			c-15.3-4.1-114.4,13.8-150.6,21.4c-0.9,0.2-1.8,0.4-2.7,0.6c-32.6,8-14.3,25.7,2.1,16.8c16.9-9.2,157.8-21.4,157.8-21.4l9.7,24.5
			c-27.6-7.1-201,27.6-228.2,33.9c-2.6,0.6-5.1,1.5-7.5,2.8c-18.9,10.1-14,17.7-6.2,22.5c6.6,4.1,14.6,5.3,22.3,3.8L153.5,422
			c22.5-7.1,127.7-14.3,127.7-14.3l11.2,32.3l-141.8,19.3c-0.8,0.1-1.5,0.3-2.2,0.6c-22.8,10.2,1.4,16.9,1.4,16.9l150.8-22.2
			l16.3,29.6l-10.2,14.3l-35.7,1l-151.1,20.4c-27.6,11.7-12.3,26.6,3.7,24.2c2.3-0.3,4.6,0.6,7,0.3l100.6-11.2
			c42.9-8.7,72.8-4.3,68.4-4.1c0,53.1,44.9,60.3,44.9,60.3l-6.1,8.2c-76.9,0-161.8,46.1-195.9,66.8
			c160.8-89.1,636.1-13.7,636.1-13.7C751,618.2,563,595.7,563,595.7z M436.1,414.4c0,1.3-0.5,2.2-1.2,2.9c-0.5,1.4-1.7,2.4-3.6,2.4
			h-36.9c-0.4,0.1-0.8,0.1-1.2,0c-1.6,0-3.2-0.8-3.9-2.7c-1.5-4.1-3-8.2-4.5-12.3c-3.7-8.9-6.5-18.2-8-27.8
			c-0.1-0.6-0.1-1.1,0.1-1.6c-0.3-2,0.7-4.2,2.9-4.6c0.5-0.2,1.1-0.4,1.7-0.4H429c2.2-1.4,5.8-0.5,6.3,2.6c0.5,0.6,0.8,1.4,0.8,2.4
			L436.1,414.4L436.1,414.4z M527.8,410.1c0,0.7-0.2,1.3-0.4,1.8c-0.5,1.4-1.7,2.5-3.6,2.5h-70.9c-2.1,1.6-5.8,1-6.6-2
			c-0.6-1.2-0.7-2.6-0.1-3.9v-35c-0.1-0.4-0.1-0.8-0.1-1.3c-0.1-2.1,1.2-4.3,3.9-4.3h75c1.7,0,2.8,0.9,3.4,2
			c0.5,0.6,0.9,1.5,0.9,2.5C529.2,385.1,527.8,397.6,527.8,410.1z M529.5,312.2c-0.2,1.1-0.4,2.3-0.6,3.4c-0.7,9.5-2.5,19-3.3,28.5
			c0,0.3,0,0.5,0,0.8c0.1,2.1-1.1,3.3-2.6,3.7c-0.4,1.6-1.6,3.1-3.8,3c-24.6-0.1-49.2-1.9-73.8-2c-2.4,1.3-6.2,0.2-6.2-3.4v-34.7
			l0,0c-0.1-1.1,0.2-2.1,0.8-3c0.6-1,1.7-1.7,3.3-1.7h81.4c0.1,0,0.2,0,0.3,0s0.2,0,0.3,0c1.8,0,2.9,1,3.5,2.2
			C529.4,309.8,529.7,310.9,529.5,312.2z M529.6,290c0,3.4-3.3,4.5-5.7,3.6c-0.3,0.1-0.7,0.1-1,0.1h-88.2c-1.1,0-2-0.4-2.7-1
			c-1.1-0.6-2-1.7-2-3.4V289c-0.1-0.6-0.1-1.3,0-2v-39.4c0-1,0.3-1.8,0.8-2.4c0.6-1.3,1.7-2.2,3.5-2.2h90.6c2,0,3.3,1.2,3.7,2.7
			c0.6,0.6,1,1.5,1,2.7L529.6,290L529.6,290z M648.5,383c0.7,17.4-15.1,36.4-32.9,37c-1.1,0-2-0.3-2.7-0.9c-1.9-0.1-3.7-1.4-3.7-3.9
			c0.1-11.3,0.9-22.5,1-33.8c-0.1-0.7-0.1-1.5,0.1-2.2c0.4-2.5,2.9-3.5,4.9-3.1h10.2c6.5-0.2,13-0.5,19.5-0.5c3.6,0,4.7,3.8,3.3,6.2
			C648.4,382.3,648.5,382.6,648.5,383z M636.3,224.1V221c0-2.1,1.3-3.4,2.9-3.8c1.3-0.5,2.8-0.5,4,0.2H690c0.1,0,0.3,0,0.4,0
			c2.3-0.5,5.1,0.7,5.2,3.8c0.2,6.5-1.2,12.9-3.5,18.9c-0.7,1.9-2.2,2.7-3.8,2.7c-0.6,0.5-1.4,0.8-2.4,0.8h-45.2l0,0
			c-2.4,1-5.8-0.1-5.8-3.5C634.9,234.7,635.7,229.4,636.3,224.1z M632.8,267.6v-10.7c0-1.1,0.4-2,1-2.6c0.3-1.7,1.6-3.2,3.8-3.2
			h45.9c2.7-0.8,6.4,2.5,4.9,6.1c-2.9,6.9-5.5,14-8.4,21c-2.8,6.6-6.3,12.9-8.5,19.7c-0.7,2.3-2.8,3-4.6,2.7c-1,0.3-2.1,0.2-3.1-0.3
			c-4.1,0-8.2-0.3-12.3-0.7c-4.6-0.2-9.1-0.5-13.6-1.1c-0.4,0.1-0.9,0.1-1.3,0.1c-2.4,1.2-6,0-5.9-3.4
			C630.6,285.9,632.3,276.8,632.8,267.6z M626.4,314.9h37.8c0.8,0,1.5,0.2,2,0.5c1.6,0.7,2.8,2.4,2.1,4.6
			c-2.7,8.9-5.4,17.8-8.5,26.6c-0.7,3.2-1.2,6.4-1.5,9.7c-0.3,3.8-4.7,4.8-6.9,3H624c-1.7,0-2.8-0.8-3.4-2c-1.2-0.6-2-1.7-2-3.4
			c0.1-10,1.7-19.9,2.5-29.9v-4.9c0-2.4,1.6-3.6,3.5-3.9C625,315.1,625.6,314.9,626.4,314.9z M546.4,217.9c0-0.4,0.1-0.8,0.2-1.2
			c0.2-1.8,1.5-3.5,3.9-3.5h67.4c0.9,0,1.6,0.3,2.2,0.7c1.5,0.4,2.8,1.7,2.8,3.7v16.3c0,4.1-4.9,4.9-7.1,2.7h-65.1
			c-2.8,0-4.1-2.3-3.9-4.4c-0.3-0.5-0.5-1.2-0.5-2L546.4,217.9L546.4,217.9z M544,290.3v-38c0-1.4,0.6-2.4,1.4-3
			c0.6-0.8,1.6-1.4,3-1.4h64.1c2.5-1.3,6.2-0.2,5.9,3.4c-0.4,7-2.2,13.7-3.5,20.6c-0.8,4.3-2.2,8.8-3,13.3c-0.1,1.1-0.2,2.3-0.2,3.5
			c0,0.7-0.2,1.2-0.4,1.7c0,0.5,0,0.9,0,1.4c0,2.4-1.7,3.7-3.6,3.9c-0.6,0.5-1.4,0.9-2.5,0.9h-57.9
			C543.8,296.4,542.7,292.6,544,290.3z M542.4,311.6c0-3,2.7-4.3,5-3.8h58.9c2.5-1.8,6.7-0.8,6.4,3c-0.5,7-2.6,13.7-4.7,20.3
			c-0.9,3.4-2,6.7-3.2,10c-0.8,2.8-1.6,5.7-2.1,8.6c-0.6,3.3-4,3.6-6.1,2c-0.6,0.2-1.2,0.2-1.9,0.1c-12.5-1.9-25.2-1.2-37.7-1.2
			c-0.6,0-1.2-0.1-1.7-0.3h-8.9c-2.8,0-4.1-2.4-3.9-4.6c-0.1-0.3-0.1-0.6-0.1-0.9V311.6z M540.4,371.3c0-2.7,2.1-4,4.2-3.9
			c0.3-0.1,0.7-0.1,1.1-0.1h51.8c2.6,0,3.9,2,3.9,4.1c0.5,0.8,0.7,1.7,0.5,2.8c-2.4,14.1-7.8,27.4-10.7,41.4
			c-0.4,1.7-1.5,2.6-2.7,2.8c-0.6,1-1.7,1.7-3.2,1.7h-39.8c-2.8,0-4.1-2.3-3.9-4.5l0,0c-0.7-0.7-1.2-1.6-1.2-2.8L540.4,371.3
			L540.4,371.3z M425.9,216.1c0-1.9,1.1-3.1,2.5-3.6c0.5-1.4,1.7-2.5,3.6-2.5h97.4c3.6,0,4.7,3.8,3.4,6.2V227c0,0.7-0.1,1.2-0.4,1.7
			c-0.5,1.5-1.7,2.7-3.7,2.7h-97.4c-2.3,0.7-5.4-0.5-5.4-3.7L425.9,216.1L425.9,216.1z M424.6,312.3c0.7,0.7,1.2,1.6,1.2,2.9v31.7
			c0,0.8-0.2,1.5-0.5,2c-0.3,1.8-1.5,3.4-3.9,3.4h-43.8c-1.9,0.4-4.2-0.3-5-2.6c-0.7-2-1.3-4-1.9-6c-2.6-8.7-3.9-17.7-5.5-26.6
			c-2.1-2.2-1.2-7,2.8-7h0.7c0.3,0,0.6,0,0.9,0h51.5C422.9,310.1,424,311.1,424.6,312.3z M418.5,251.6v39.1c0,3.6-3.9,4.7-6.3,3.3
			c-0.3,0.1-0.7,0.1-1,0.1H365c-0.8,0.6-1.7,0.8-2.6,0.8c-1.7,1-4.1,0.8-5.3-1.4c-3.5-6.3-4.9-13.2-6.7-20
			c-1.9-7.3-4.2-14.3-5.1-21.8c-0.1-0.7,0-1.4,0.2-1.9c0.3-1.7,1.6-3.2,3.8-3.2h63.2c1.3,0,2.3,0.5,2.9,1.3
			C417.1,248.2,418.5,249.4,418.5,251.6z M338.6,215.3c0.6-0.2,1.3-0.1,1.9,0c0.6-0.6,1.5-1,2.6-1h64.1c0.9,0,1.7,0.3,2.3,0.7
			c2.1-0.1,4.3,1.2,4.3,3.9c0,3.4,0.3,6.8,0.7,10.2c0.1,0.7-0.1,1.5-0.5,2.1c0,0.1,0,0.1,0,0.2c0,2-1.3,4.1-3.9,4.1h-63.9
			c-1.7,0.8-4.4,0.3-5.2-1.6c-1.9-4.5-4.3-8.7-5.2-13.6C335.4,218.1,336.4,215.9,338.6,215.3z M246.8,243.3c-2.7,0-4-2.2-3.9-4.3
			c-0.1-0.3-0.2-0.7-0.2-1.1v-14c0-0.6,0.1-1.2,0.3-1.7c0.2-1.9,1.4-3.7,3.9-3.7h67c2.4-1.4,6.3-0.4,6.3,3.3v0.4c0,0.3,0,0.5,0,0.8
			v15.2c0,0.4-0.1,0.7-0.1,1.1c0,2-1.3,4-3.9,4H246.8z M271.2,301.2c-0.9-0.2-1.7-0.7-2.4-1.6c-3.6-4.8-4.3-10.9-5.8-16.5
			c-2-7.9-4.3-15.7-6.6-23.6c-0.8-2.8,1.3-4.7,3.5-5c0.6-0.9,1.7-1.5,3.1-1.5h65.7c3.3,0,4.5,3.2,3.6,5.6c0.1,0.2,0.2,0.5,0.3,0.8
			c2.6,11.6,8.3,22.1,11.9,33.4c0.2,0.8,0.3,1.4,0.1,2c0.4,1.3,0.2,2.9-0.6,4c-0.4,1.5-1.7,2.8-3.7,2.8H273
			C272.3,301.6,271.7,301.4,271.2,301.2z M296.8,354c-1.5,0-2.6-0.7-3.2-1.6c-0.2-0.2-0.4-0.4-0.6-0.7c-7.3-9.9-10.5-22.1-15.3-33.4
			c-0.7-1.6-0.3-3.2,0.6-4.4c0.5-1.4,1.7-2.4,3.6-2.4h58.2c0.9,0,1.6,0.3,2.2,0.7c1.3,0.3,2.5,1.1,3,2.7c4,11,5.8,22.9,11.8,33.1
			c2.1,3.5-1.8,6.8-4.8,5.8c-0.4,0.1-0.9,0.2-1.4,0.2L296.8,354L296.8,354z M301.5,377.8c-1.4-2.9,0.8-5.6,3.1-6.1
			c0.5-0.2,1.1-0.4,1.7-0.4h52.1c2.6,0,3.9,2,3.9,4c4,13.1,8.1,26.1,10.9,39.5c0.5,2.3-0.8,3.9-2.5,4.7c-0.6,0.7-1.6,1.1-2.8,1.1
			h-43c-1.7,0.7-3.7,0.4-4.8-1.7C313.2,405.7,307.9,391.5,301.5,377.8z M391.1,557.4c-1.5,2.2-3.2,4.2-5.1,6.1
			c-0.1,0.1-0.2,0.2-0.2,0.2c-0.3,0.3-0.6,0.6-0.9,0.9c-0.3,0.3-0.7,0.5-1,0.7c-8.4,6.7-17.9,9.7-28.8,8.5
			c-9.6-1.1-20.3-4.6-26.9-12.1c-6.6-6.2-11-15.8-12.1-23.9c0-0.3-0.1-0.6,0-0.9c-0.1-1.4-0.1-2.8-0.1-4.2c-0.3-2.9,0.2-5.6,1-8.5
			c0-0.3,0-0.7,0.1-1.1c0.8-3.7,2.4-7,4.6-10c0.1-0.2,0.2-0.5,0.3-0.7c0.3-0.6,0.6-1.2,1-1.6c5.2-11.9,18.9-20.2,31.7-20.3
			c0.3,0,0.6,0,0.8,0.1c0.2,0,0.3,0.1,0.5,0.1c10.8-0.9,22.3,2.3,29.6,9.8c0.2,0.1,0.4,0.2,0.5,0.4c0.9,0.7,1.6,1.5,2.4,2.4
			c0.1,0.1,0.1,0.1,0.2,0.1c13.1,11.6,15.6,30.9,8,46.3c-0.3,0.6-0.7,1.1-1.2,1.4C394.4,553.5,393,555.6,391.1,557.4z M524.3,592.3
			c-0.9,0.9-2.2,1.5-3.7,1.2c-19.8-3.3-39.9-3.2-59.9-3.9c-20.3-0.7-40.7-1.6-61.1-1.6c-3.7,0-4.8-4.1-3.2-6.4
			c0-0.8,0.4-1.7,1.1-2.5c12.8-13.7,22.2-33.6,19.1-52.7c0,0,0,0,0-0.1c-0.8-2.4,0.4-5.6,3.6-5.6H502c3.7,0,4.8,4.2,3.1,6.5v0.1
			c-2.5,12.2-4.1,23.2,1.5,34.8c4.6,9.5,11.3,18.3,21.1,22.9C532.3,587.2,528.7,593.6,524.3,592.3z M532.7,569.7
			c-0.1-0.1-0.1-0.2-0.2-0.3c-9.3-6.9-14-16.4-14.2-28.8c0-0.3,0-0.7,0.1-0.9c-2.4-22.7,22.2-44.2,43.8-44.7c0.8,0,1.5,0.2,2.1,0.5
			c12.6,0.1,25,6.7,32.9,16.3c9.5,11.4,10.3,26.3,7.5,40.4c-0.1,0.6-0.3,1.1-0.6,1.5c-4.4,15.6-18.2,24.8-34.2,26.7
			C557.7,581.7,540.4,580.7,532.7,569.7z"/>
		<path class="st5" d="M499,564.8c-5.5-12.1-4.7-23.6-2.4-36H425c1.5,18.5-6,36.9-17.6,51.2c18.4,0.2,36.8,0.9,55.2,1.6
			c16.6,0.6,33.3,0.8,49.8,2.7C506.8,578.8,502.2,571.9,499,564.8z"/>
		<path class="st5" d="M385.5,516.1c-0.5-0.4-0.8-1-1-1.8c-0.5-1.8-1.2-3.5-2.1-4.9c-5.3-7.5-14.7-9.5-23.5-9.7
			c-13.1,2.1-25.8,7.4-26.3,22.6c-0.4,13.3,4,26.7,15.6,34.2c10.8,6.9,24.9,6.7,32.9-2.9c-0.1-1.6,0.7-2.8,2-3.7
			c0.3-0.2,0.6-0.5,1-0.7c0.1-0.1,0.1-0.2,0.2-0.4c3-6,3.4-12.9,3.1-19.5C387.1,524.9,386.8,520.4,385.5,516.1z"/>
		<path class="st5" d="M625.7,384.3c-2.3,0.1-4.5,0.1-6.8,0.2v25.9c11.1-3.5,16.5-15.5,20-26.1H625.7z"/>
		<path class="st5" d="M579.8,408.6c3.7-11.1,9.3-21.5,12.7-32.8h-43.2v32.8H579.8z"/>
		<rect x="454.2" y="376.6" class="st5" width="64.7" height="29.2"/>
		<path class="st5" d="M596.5,340.2c0.3-0.8,0.6-1.5,0.9-2.3c0.6-1.9,1.2-3.7,1.8-5.6c1.6-5.3,2.9-10.7,4-16.2h-52.4v25h44.7
			C595.7,340.8,596.1,340.5,596.5,340.2z"/>
		<path class="st5" d="M379.1,343.3h37.7v-24.8h-42.9c1.6,7.9,2.7,15.8,4.8,23.5C378.8,342.4,378.9,342.8,379.1,343.3z"/>
		<path class="st5" d="M409.2,285.8v-31.2h-54.7c3.2,10.6,6.7,21.1,11,31.2H409.2z"/>
		<path class="st5" d="M603.6,287.3c0.1-0.6,0.2-1.2,0.3-1.9c0.8-9.8,4.1-19.1,4.8-28.9h-55.9v30.7L603.6,287.3L603.6,287.3z"/>
		<path class="st4" d="M364.1,411.3c-2.5-10.7-5.7-21.2-9-31.7h-44c4.7,10.6,9,21.4,14.2,31.7H364.1z"/>
		<path class="st4" d="M347.1,345.9c-3.7-8.4-5.7-17.5-8.6-26.3h-51.6c3.5,9,6.6,18.3,12,26.3H347.1z"/>
		<path class="st4" d="M597.5,546.7c1.6-10.7,0.6-22-6.8-30.3c-7-7.9-17.2-13.2-27.9-12.8c-0.8,0-1.4-0.1-2-0.4
			c-9.5,0.7-18.3,5.7-24.7,12.6c-6.4,6.9-12.5,19-8.4,28.5c0.6,1.5,0.4,2.9-0.3,4c1.3,5.2,3.8,9.4,7.8,12.9c1.3,0.2,2.5,0.9,3,2
			c0.1,0.2,0.3,0.5,0.4,0.7c0,0,0.1,0,0.1,0.1l0.1,0.1c0.5,0.4,1.1,0.7,1.7,1.1c0.1,0.1,0.3,0.1,0.3,0.1c0.2,0.1,0.4,0.1,0.7,0.2
			c1.9,0.5,3,2.4,2.9,4.2c6.9,3.7,17.6,3.5,24.2,2.9c14.5-1.4,26.1-9.8,28.7-24.7C597.3,547.3,597.4,547,597.5,546.7z"/>
		<path class="st4" d="M569.9,580.3c-5.8,0.7-12.7,0.8-19.2-0.4c3.6,1,7.4,1.6,11.3,1.6c4.3,0,8.4-0.6,12.3-1.8
			C572.9,579.9,571.4,580.1,569.9,580.3z"/>
		<path class="st4" d="M395.5,586.4c-3.8,0.5-7.5,1.2-11.2,2.2c4.2-2,8-4.8,11.5-7.9"/>
		<path class="st4" d="M530.4,590.2c0.8,0.2,1.7,0.3,2.5,0.4c-0.7-0.1-1.4-0.1-2.1-0.2"/>
		<path class="st6" d="M595.1,171.3c5.6-9,27-41.6,34.5-33c1.7,2,1.7,4.9,0.2,7c-7.1,9.9-32.8,44.8-35.8,32
			C593.5,175.3,593.9,173.1,595.1,171.3z"/>
		<polygon class="st4" points="327.3,253 326.6,250 296.1,253 		"/>
		<path class="st4" d="M363.1,285.8h47.3v-31.2h-56.6c1,5.6,2.9,11.1,4.3,16.7c1.3,4.9,2.3,10,4.2,14.6
			C362.6,285.8,362.9,285.8,363.1,285.8z"/>
		<path class="st4" d="M418.3,291.8c-0.8,2.7-4.1,3.3-6.2,2c-0.1,0-0.2,0-0.2,0h-48.3c-0.4,0.4-0.9,0.8-1.4,1.1h56.4L418.3,291.8z"
			/>
		<rect x="438.1" y="251.5" class="st4" width="81.8" height="32.5"/>
		<path class="st4" d="M523.7,291.9c-0.2,0-0.3,0-0.5,0c-0.5,0.2-1,0.3-1.6,0.3h-84.3v0.8h89.9v-3.4
			C526.8,290.8,525.6,291.9,523.7,291.9z"/>
		<path class="st4" d="M603.7,287.3c0.5-10.4,4.2-20.4,4.9-30.7h-55.9v30.7H603.7z"/>
		<path class="st4" d="M638.3,298.4c-1.7,0.6-3.9,0.1-4.9-1.5c-1-1.3-1.2-3.1-0.6-4.6v-9.1l-2,15.3l33.1,2l0.1-0.3
			C655.4,300.4,646.9,298.9,638.3,298.4z"/>
		<path class="st4" d="M661.9,292.2c0.1-0.3,0.2-0.7,0.2-1c-1.3,0.5-2.9,0.3-4-0.5c-0.2,0.4-0.4,0.9-0.7,1.3
			C659,292.1,660.4,292.2,661.9,292.2z"/>
		<path class="st4" d="M342.3,312.2c0.6,0.1,1.1,0.3,1.6,0.7l-0.4-1.5l-6.6,0.2h3.2C341,311.5,341.7,311.8,342.3,312.2z"/>
		<path class="st4" d="M347.1,345.9c-3.7-8.4-5.7-17.5-8.6-26.3h-51.6c3.5,9,6.6,18.3,12,26.3H347.1z"/>
		<path class="st4" d="M416.8,343.3v-24.8h-43.2c1.5,8.4,2.8,16.8,5.4,24.8H416.8z"/>
		<path class="st4" d="M421.1,310.3c1.1,0,1.9,0.4,2.6,0.9v-2.5l-35.6,1.6H421.1z"/>
		<path class="st4" d="M517.7,341.5c0.9-8.8,2.5-17.5,3.1-26.4h-72.9v26.4H517.7z"/>
		<path class="st4" d="M522.4,348.4c-0.6,0.7-1.6,1.1-2.8,1.1h-74l0,0l0,0h78.6l0.2-2.4C523.9,347.8,523.2,348.2,522.4,348.4z"/>
		<path class="st4" d="M596.5,340.2c3-7.9,5.1-16.1,6.7-24.4h-52.8v25.4h44.9C595.7,340.8,596.1,340.5,596.5,340.2z"/>
		<path class="st4" d="M598.8,349.3H547c-0.7,0-1.3-0.1-1.8-0.4v0.7l54.1,3.1l0.8-3.6C599.7,349.2,599.3,349.3,598.8,349.3z"/>
		<path class="st4" d="M650.3,349.1c3.2-8.6,5.9-17.4,8.6-26.1h-29.8v26.1H650.3z"/>
		<polygon class="st4" points="639.3,357.2 650.9,358.8 651.2,357.2 		"/>
		<path class="st4" d="M364.1,411.3c-2.5-10.7-5.7-21.2-9-31.7h-44c4.7,10.6,9,21.4,14.2,31.7H364.1z"/>
		<path class="st4" d="M428,411.2v-32.8h-42.7c2.2,11.4,6.3,22.3,11.3,32.8H428z"/>
		<path class="st4" d="M527.3,372.6h-0.4c0,0.2,0,0.4,0,0.6c0.1,0.4,0.2,0.8,0.2,1.2v1.3L527.3,372.6z"/>
		<rect x="454.2" y="376.6" class="st4" width="64.7" height="29.2"/>
		<path class="st4" d="M522.2,413.9h-14.1l15.1,0.6l0.1-0.7C522.9,413.8,522.6,413.9,522.2,413.9z"/>
		<path class="st4" d="M579.8,408.6c3.7-11.1,9.3-21.5,12.7-32.8h-44v32.8H579.8z"/>
		<path class="st4" d="M584.5,415.5c-0.4,0.4-0.9,0.8-1.5,1h5.6l3.4-17.3c-1.9,4.5-3.7,9.1-5.1,13.8
			C586.4,414.3,585.5,415.2,584.5,415.5z"/>
		<path class="st4" d="M640.5,384.3h-22.1c-0.2,9.2-0.8,18.3-0.9,27.5C629.7,410.1,640.2,396.3,640.5,384.3z"/>
		<path class="st4" d="M613,419.1c-1.1-0.1-2.2-0.6-2.9-1.5l-0.1,0.9c0,0,1.2,0.4,3.1,0.7C613,419.2,613,419.1,613,419.1z"/>
	</g>
	<g id="Layer_2_00000089544699664419165930000011587240697463361667_" class="st3">
	</g>
</g>
<g id="Layer_2">
	<path class="st0" d="M416.2,680.6c-0.1-4.4-2-8.6-5.3-11.6c-13-12.1-51.9-41.3-87.4,4.6c-36.6,47.3,7.8,80,22.6,89.1
		c3,1.8,6.4,3,9.9,3.3c13.4,1.2,47.8,1,57-32.8c1-3.6,0.4-7.6-1.8-10.6c-2.8-3.9-8-6.2-16.7,4.8c-0.7,0.9-1.4,1.9-1.8,3
		c-3,6.8-18.1,34.7-53.5,0.5l0,0c-3-2.9-4.9-6.9-5.2-11.1c-1.3-15.5-0.9-52.2,31.4-52.9c0.7,0,1.5-0.1,2.2-0.2
		c3.4-0.8,16.4-2,27.5,19.4c2.4,4.6,7.4,7.6,12.6,7.1C412.1,692.9,416.4,690,416.2,680.6z"/>
	<path class="st0" d="M462.8,756.6V658c0,0-0.1-9.1,13.6-9l14.5,0c0,0,3.8-0.7,7.9,11.8s18.6,67.7,18.6,67.7l19.1-70.5
		c0,0-1.3-9.3,18.4-9c19.7,0.3,17.4,11,17.4,11v96.5c0,0-10,20.9-20,0l-0.3-88.1l-23.7,90c0,0-10,15.2-22.5,0.8l-23.7-90.5v87.8
		C482.2,756.6,475.5,775.7,462.8,756.6z"/>
</g>
</svg>
